# xmcd
#
# Track frame offsets:
#	150
#	10238
#	20477
#	28991
#	39004
#	47890
#	59854
#	71443
#	84984
#	96273
#	105011
#	114949
#
# Disc length: 1703 seconds
#
# Revision: 1
# Processed by: cddbd v1.5.2PL0 Copyright (c) Steve Scherf et al.
# Submitted via: audiograbber 1.83.01
#
DISCID=8f06a50c
DTITLE=Johnny Cash - The Fabulous Johnny Cash
DYEAR=2009
DGENRE=Country
TTITLE0=Run Softly, Blue River
TTITLE1=Frankie's Man, Johnny
TTITLE2=That's All Over
TTITLE3=The Troubadour
TTITLE4=One More Ride
TTITLE5=That's Enough
TTITLE6=I Still Miss Someone
TTITLE7=Don't Take Your Guns to Town
TTITLE8=I'd Rather Die Young
TTITLE9=Pickin' Time
TTITLE10=Shepherd of My Heart
TTITLE11=Supper-Time
EXTD=
EXTT0=
EXTT1=
EXTT2=
EXTT3=
EXTT4=
EXTT5=
EXTT6=
EXTT7=
EXTT8=
EXTT9=
EXTT10=
EXTT11=
PLAYORDER=
